<?xml version="1.0" encoding="UTF-8" standalone="no"?>
<!-- Created with Inkscape (http://www.inkscape.org/) -->

<svg
   width="560.53564"
   height="1078.8633"
   viewBox="0 0 148.30839 285.44924"
   version="1.1"
   id="svg5"
   xml:space="preserve"
   inkscape:version="1.2.2 (b0a8486541, 2022-12-01)"
   sodipodi:docname="Prezi bg.svg"
   xmlns:inkscape="http://www.inkscape.org/namespaces/inkscape"
   xmlns:sodipodi="http://sodipodi.sourceforge.net/DTD/sodipodi-0.dtd"
   xmlns="http://www.w3.org/2000/svg"
   xmlns:svg="http://www.w3.org/2000/svg"><sodipodi:namedview
     id="namedview7"
     pagecolor="#ffffff"
     bordercolor="#666666"
     borderopacity="1.0"
     inkscape:showpageshadow="2"
     inkscape:pageopacity="0.0"
     inkscape:pagecheckerboard="0"
     inkscape:deskcolor="#d1d1d1"
     inkscape:document-units="mm"
     showgrid="true"
     showguides="false"
     inkscape:zoom="0.36328125"
     inkscape:cx="967.56989"
     inkscape:cy="543.65591"
     inkscape:window-width="1916"
     inkscape:window-height="1036"
     inkscape:window-x="0"
     inkscape:window-y="0"
     inkscape:window-maximized="1"
     inkscape:current-layer="layer1"><sodipodi:guide
       position="18.723089,137.89347"
       orientation="1,0"
       id="guide1735"
       inkscape:locked="false" /><inkscape:grid
       type="xygrid"
       id="grid1737"
       units="pc"
       spacingx="4.2333333"
       spacingy="4.2333333"
       enabled="true"
       visible="true"
       empspacing="5"
       originx="0"
       originy="0" /></sodipodi:namedview><defs
     id="defs2" /><g
     inkscape:label="Layer 1"
     inkscape:groupmode="layer"
     id="layer1"><rect
       style="fill:#0d1117;fill-opacity:1;stroke-width:0.182439;stroke-linecap:round;stroke-linejoin:round;stroke-dashoffset:74.8346;paint-order:markers fill stroke"
       id="rect1791"
       width="148.3084"
       height="285.44925"
       x="0"
       y="0" /><g
       id="g13210"
       transform="translate(0,-20.330349)"><path
         style="fill:#c1993c;stroke-width:0.0131194"
         d="m 44.332915,54.688525 -1.904535,-2.536552 3.522206,-4.488336 3.522204,-4.488335 h 3.897353 3.897353 l -0.04526,0.05576 c -0.0249,0.03067 -2.500072,3.184743 -5.500389,7.009059 -3.000317,3.824315 -5.461708,6.960425 -5.469758,6.96913 -0.01106,0.01196 -0.479186,-0.60288 -1.91917,-2.520723 z"
         id="path1634" /><path
         style="fill:#212121;stroke-width:0.0131194"
         d="m 21.609468,78.679778 c 0.285585,-0.358842 14.047156,-17.900945 14.047156,-17.90614 0,-0.0064 -13.090629,-17.528785 -13.130229,-17.575378 -0.01858,-0.02186 0.176303,-0.02292 4.065944,-0.02223 l 4.085458,7.75e-4 2.853478,3.819995 c 1.569413,2.100997 2.854105,3.829601 2.854872,3.841342 7.75e-4,0.01175 1.631692,2.193317 3.624277,4.847943 3.214142,4.282055 17.253912,23.059182 17.253912,23.075801 0,0.0036 -1.834759,0.0065 -4.07724,0.0065 H 49.109855 L 44.29088,72.320177 c -2.650435,-3.546511 -4.822845,-6.448188 -4.827577,-6.448167 -0.0047,0 -2.284498,2.901307 -5.066145,6.447304 l -5.057543,6.447268 -3.900312,9.3e-4 -3.900311,9.29e-4 z M 58.536921,67.990717 V 57.226218 h 2.951873 2.951874 v 10.764499 10.764497 h -2.951874 -2.951873 z m 9.813339,9.832793 c -0.884236,-0.673132 -1.53425,-1.595155 -1.886645,-2.67614 -0.241644,-0.741254 -0.349267,-1.619786 -0.316614,-2.584529 0.04934,-1.457852 0.37902,-2.470777 1.124587,-3.455274 0.372173,-0.491442 0.765974,-0.860666 1.288583,-1.20816 0.711472,-0.473072 1.403903,-0.773985 2.368769,-1.029405 1.413932,-0.374295 2.988167,-0.639148 5.037153,-0.847459 0.573161,-0.05827 0.883965,-0.0978 1.285705,-0.163532 1.236932,-0.202378 1.96931,-0.445851 2.528629,-0.840617 0.452019,-0.319036 0.661732,-0.718733 0.687555,-1.310428 0.01421,-0.325508 -0.02459,-0.806001 -0.08834,-1.094027 -0.14393,-0.650318 -0.544547,-1.201996 -1.10656,-1.52381 -0.51144,-0.292856 -1.064708,-0.422683 -2.046413,-0.480205 -0.339496,-0.01989 -1.09132,-0.0088 -1.332737,0.01965 -0.877949,0.103492 -1.530919,0.341643 -2.053192,0.748837 -0.369316,0.28794 -0.675535,0.728202 -0.865682,1.24462 -0.101496,0.275654 -0.195464,0.680693 -0.238593,1.028431 l -0.02319,0.186952 h -2.954939 -2.954941 l 0.0058,-0.06232 c 0.0032,-0.03427 0.012,-0.136114 0.01952,-0.22631 0.06995,-0.839019 0.269563,-1.662441 0.566101,-2.33526 0.302157,-0.685568 0.75063,-1.320297 1.367538,-1.935494 0.463473,-0.462189 0.888029,-0.787978 1.470485,-1.128398 1.036009,-0.605506 2.212492,-1.007552 3.660322,-1.250872 1.078519,-0.181251 1.93317,-0.250917 3.075152,-0.250664 0.765693,1.55e-4 1.192675,0.01763 1.943033,0.07947 1.905675,0.157041 3.152572,0.456832 4.362214,1.048805 0.82855,0.405474 1.524243,0.955885 2.072628,1.639794 0.594678,0.741646 0.867121,1.457516 1.000408,2.628675 0.01899,0.166847 0.02196,0.820299 0.02963,6.515574 0.0061,4.558614 0.01277,6.396215 0.02369,6.566277 0.04384,0.682523 0.0771,1.073339 0.126178,1.482496 0.01644,0.137099 0.02928,0.250299 0.02851,0.251557 -7.75e-4,0.0012 -1.258838,0.07651 -2.795724,0.167222 -1.536887,0.09071 -2.836294,0.168523 -2.887569,0.17291 -0.11211,0.0096 -0.0995,0.0366 -0.130906,-0.280527 -0.01266,-0.127845 -0.02496,-0.2349 -0.02734,-0.237898 -0.0024,-0.003 -0.0737,0.0621 -0.158491,0.144657 -0.08479,0.08256 -0.222944,0.210544 -0.307003,0.284409 l -0.152834,0.134297 -5.749997,0.340938 c -3.162498,0.187516 -5.774023,0.340868 -5.803389,0.340782 -0.04639,-1.31e-4 -0.07145,-0.0139 -0.191148,-0.105023 z m 7.878446,-2.453354 c 0.731481,-0.04662 1.330765,-0.175797 1.810342,-0.390228 0.520107,-0.232555 1.090468,-0.673616 1.452259,-1.123037 0.336911,-0.418512 0.62458,-1.012598 0.775895,-1.602358 0.0548,-0.213585 0.08869,-0.415867 0.126392,-0.754367 0.06794,-0.610032 0.06881,-0.6331 0.07518,-1.990875 0.0033,-0.708941 0.002,-1.288985 -0.0029,-1.288985 -0.0049,0 -0.0364,0.02421 -0.06998,0.05379 -0.150344,0.13247 -0.452994,0.30501 -0.717685,0.409151 -0.263443,0.103651 -0.785543,0.247798 -1.219444,0.336677 -0.486379,0.09963 -0.83498,0.155106 -1.489309,0.237013 -0.998129,0.124942 -1.531731,0.216814 -2.092297,0.360235 -0.570845,0.146051 -0.877841,0.251771 -1.220108,0.42017 -0.369136,0.18162 -0.623283,0.361593 -0.873379,0.618477 -0.397161,0.40794 -0.612431,0.849556 -0.702569,1.44128 -0.03413,0.224085 -0.03475,0.826472 -0.0011,1.042996 0.07436,0.477989 0.22446,0.838972 0.488014,1.173677 0.496569,0.630622 1.313725,0.9651 2.578054,1.055243 0.22222,0.01584 0.841633,0.01649 1.082579,0.0011 z m 12.679711,-8.453902 v -9.690036 h 2.807559 2.80756 v 1.502176 1.502175 h 0.05959 0.0596 l 0.07488,-0.119402 c 0.719689,-1.14762 1.620548,-1.99482 2.703597,-2.542556 1.030985,-0.521406 2.127677,-0.826207 3.265947,-0.907699 0.28291,-0.02025 1.30903,-0.0081 1.65557,0.01963 1.29523,0.1036 2.23093,0.332178 3.11642,0.7613 1.43931,0.697518 2.38616,1.752634 2.96173,3.300384 0.37172,0.999596 0.60176,2.383888 0.66494,4.001429 0.008,0.206865 0.0131,2.306071 0.0132,5.500323 l 1.6e-4,5.165779 h -0.0372 c -0.0205,0 -1.33093,0.07675 -2.91212,0.170553 -1.58119,0.0938 -2.89257,0.170553 -2.91417,0.170553 h -0.0393 l -0.005,-4.90339 c -0.004,-3.584171 -0.009,-4.9581 -0.0202,-5.106741 -0.0676,-0.894313 -0.16015,-1.46064 -0.3319,-2.031835 -0.12235,-0.406907 -0.31797,-0.842385 -0.50527,-1.124811 -0.47433,-0.715246 -1.18649,-1.106918 -2.26782,-1.247268 -0.231591,-0.03006 -1.085403,-0.03432 -1.338186,-0.0067 -1.129617,0.123517 -1.917699,0.456882 -2.532578,1.071299 -0.684964,0.684452 -1.107562,1.758638 -1.284038,3.263835 -0.031,0.264404 -0.0414,0.377323 -0.07581,0.823269 -0.01032,0.133722 -0.01615,1.611509 -0.01963,4.974657 l -0.0049,4.784421 -0.06845,0.0075 c -0.03765,0.0041 -1.325954,0.08121 -2.862896,0.1713 -1.536941,0.09009 -2.83429,0.167418 -2.882995,0.171838 l -0.08856,0.008 z m 22.050323,8.249041 c -0.0143,-0.02358 -0.11336,-0.385675 -0.1521,-0.555822 -0.075,-0.329489 -0.13159,-0.730836 -0.15904,-1.128273 -0.0169,-0.244579 -0.0169,-0.961094 -1.3e-4,-1.206987 0.0693,-1.011932 0.28574,-1.813374 0.67485,-2.499253 0.58323,-1.02805 1.33893,-1.736757 2.4474,-2.295208 0.66928,-0.337182 1.25171,-0.529966 2.40086,-0.794679 1.19001,-0.274124 2.57461,-0.488244 4.28349,-0.662412 0.92998,-0.09478 1.54374,-0.19014 2.20407,-0.342429 0.81879,-0.188834 1.44632,-0.478366 1.83722,-0.847665 0.24628,-0.232665 0.39539,-0.543978 0.44721,-0.933644 0.0396,-0.297992 0.007,-0.90082 -0.0693,-1.260936 -0.1424,-0.676731 -0.54476,-1.231161 -1.13314,-1.561396 -0.49407,-0.277302 -1.03742,-0.404527 -1.98705,-0.465265 -0.27089,-0.01733 -0.92239,-0.01725 -1.14883,1.3e-4 -0.96013,0.07372 -1.71304,0.327528 -2.27557,0.767117 -0.13353,0.104349 -0.34598,0.322923 -0.44924,0.462189 -0.34882,0.470459 -0.57005,1.09434 -0.66068,1.863175 l -0.0159,0.134474 h -2.95447 -2.95448 l 0.005,-0.06888 c 0.10873,-1.410665 0.43203,-2.466362 1.03357,-3.374975 0.64319,-0.971535 1.47766,-1.737665 2.53232,-2.324944 1.43333,-0.798138 3.10998,-1.227345 5.45113,-1.395442 0.31331,-0.02249 1.58319,-0.03078 2.00463,-0.01308 0.85532,0.03593 1.69022,0.111641 2.47565,0.224494 0.96917,0.139254 1.91225,0.409337 2.74834,0.787085 0.94585,0.42734 1.68652,0.994139 2.30534,1.764164 0.57068,0.710119 0.85756,1.465893 0.98384,2.591813 0.0212,0.188652 0.023,0.608227 0.0267,6.083415 0.002,3.234432 -6.2e-4,5.88095 -0.006,5.881148 -0.006,1.55e-4 -1.68377,0.09986 -3.72942,0.221476 -2.04564,0.121611 -3.72066,0.220015 -3.72226,0.218673 -0.002,-0.0014 0.0413,-0.03961 0.0953,-0.08504 0.14417,-0.121251 0.36208,-0.343864 0.47971,-0.490059 0.29342,-0.364674 0.53726,-0.831255 0.70443,-1.34791 0.10179,-0.314561 0.14341,-0.518269 0.19164,-0.938039 0.0772,-0.671461 0.077,-0.667475 0.0829,-2.049913 0.004,-0.925602 0.002,-1.288984 -0.009,-1.288984 -0.008,0 -0.0482,0.02763 -0.0896,0.06139 -0.18625,0.151936 -0.47505,0.309904 -0.75091,0.410721 -0.083,0.03033 -0.28075,0.0923 -0.4395,0.137719 -0.61415,0.17571 -1.27592,0.298877 -2.25654,0.419987 -1.24855,0.154201 -1.98376,0.302844 -2.72827,0.551593 -0.81667,0.272861 -1.4094,0.709671 -1.77399,1.307317 -0.18534,0.303805 -0.28722,0.608334 -0.34811,1.040546 -0.0225,0.160024 -0.0223,0.761977 4.7e-4,0.92492 0.071,0.510242 0.23888,0.913071 0.5278,1.26684 0.0924,0.113112 0.25781,0.270231 0.37437,0.355564 l 0.0866,0.06344 -0.0636,0.0097 c -0.035,0.0053 -1.47754,0.09253 -3.20569,0.193795 -1.72816,0.101267 -3.18119,0.187637 -3.22895,0.191927 -0.0478,0.0043 -0.0899,0.0027 -0.0937,-0.0036 z M 58.536921,51.460226 v -2.433655 h 2.951873 2.951874 v 2.433655 2.433656 h -2.951874 -2.951873 z"
         id="path1630" /></g><g
       style="clip-rule:evenodd;fill-rule:evenodd;stroke-linejoin:round;stroke-miterlimit:2"
       id="g1733"
       transform="matrix(0.47631298,0,0,0.47631298,21.538992,210.23014)"><path
         d="m 0,26.925 h 5.85 v -10.05 h 9.3 v -4.8 h -9.3 v -5.55 h 9.975 v -4.8 H 0 Z"
         fill="#c29a3d"
         fill-rule="nonzero"
         id="path1715" /><path
         fill="#c29a3d"
         d="m 18.3,1.725 h 5.85 v 25.2 H 18.3 Z"
         id="path1717" /><path
         d="m 36.675,7.725 c -6.525,0 -9.45,5.25 -9.45,10.05 0,5.85 3.675,9.6 10.05,9.6 2.55,0 4.875,-0.375 6.825,-1.2 L 43.275,22.2 c -1.575,0.525 -3.225,0.825 -5.175,0.825 -2.7,0 -5.1,-1.125 -5.325,-3.6 H 44.85 C 44.925,18.975 45.075,18.15 45.075,17.1 45,12.45 42.75,7.725 36.675,7.725 Z m -3.975,7.65 c 0.15,-1.575 1.125,-3.825 3.6,-3.825 2.625,0 3.3,2.4 3.3,3.825 z M 64.65,8.1 h -6.375 l -1.65,3.075 C 56.1,12.075 55.65,13.05 55.2,14.1 h -0.075 c -0.45,-0.9 -0.975,-1.875 -1.5,-2.775 L 51.75,8.1 h -6.525 l 6.225,9.225 -6.375,9.6 h 6.375 l 1.8,-3.375 c 0.45,-0.9 0.975,-1.875 1.425,-2.85 h 0.075 c 0.45,0.975 0.9,1.95 1.425,2.85 l 1.875,3.375 h 6.6 L 58.5,17.1 Z m 1.875,18.825 5.85,-0.45 V 8.1 h -5.85 z m 25.05,-11.1 c 0,-4.425 -1.95,-8.1 -8.25,-8.1 -3.45,0 -6,0.9 -7.275,1.65 l 1.05,3.75 c 1.275,-0.75 3.3,-1.425 5.175,-1.425 2.925,0 3.45,1.425 3.45,2.4 v 0.225 c -6.675,0 -11.025,2.325 -11.025,7.2 0,1.725 0.75,3.375 2.175,4.5 L 91.65,24.975 C 91.575,24.15 91.575,23.25 91.575,22.35 Z M 85.95,20.1 c 0,0.3 0,0.675 -0.075,0.975 -0.375,1.2 -1.575,2.175 -3,2.175 -1.35,0 -2.325,-0.75 -2.325,-2.25 0,-2.25 2.4,-3 5.475,-2.925 V 20.1 Z M 105.825,7.725 c -3.15,0 -5.025,1.8 -5.775,3 H 99.9 L 99.6,8.1 h -5.1 c 0.075,1.65 0.15,3.675 0.15,6 v 10.5 l 5.85,-0.45 v -8.1 c 0,-0.525 0.075,-1.05 0.225,-1.425 0.375,-1.05 1.35,-2.175 3,-2.175 2.1,0 3,1.65 3,4.05 v 7.275 l 5.85,-0.45 v -7.5 c 0,-5.55 -2.925,-8.1 -6.75,-8.1 z m 17.325,0 c -3.45,0 -6,0.9 -7.275,1.65 l 1.05,3.75 c 1.275,-0.75 3.3,-1.425 5.175,-1.425 2.925,0 3.45,1.425 3.45,2.4 v 0.225 c -6.675,0 -11.025,2.325 -11.025,7.2 0,0.525 0.075,0.975 0.225,1.5 l 6.15,-0.45 c -0.375,-0.375 -0.6,-0.9 -0.6,-1.65 0,-2.25 2.4,-3 5.475,-2.925 v 2.025 c 0,0.3 0,0.675 -0.075,0.975 -0.15,0.45 -0.45,0.9 -0.825,1.275 l 6.6,-0.45 V 15.75 C 131.4,11.4 129.375,7.725 123.15,7.725 Z"
         fill="#c29a3d"
         fill-rule="nonzero"
         id="path1719" /><path
         fill="#c29a3d"
         d="M 66.525,0 H 72.3 v 5.775 h -5.775 z"
         id="path1721" /></g><text
       xml:space="preserve"
       style="font-style:normal;font-weight:normal;font-size:15.8446px;line-height:1.25;font-family:sans-serif;fill:#c1993c;fill-opacity:1;stroke:none;stroke-width:0.396115"
       x="20.089211"
       y="244.49548"
       id="text9843"><tspan
         sodipodi:role="line"
         id="tspan9841"
         style="font-style:normal;font-variant:normal;font-weight:normal;font-stretch:normal;font-family:Lato;-inkscape-font-specification:Lato;fill:#c1993c;fill-opacity:1;stroke-width:0.396115"
         x="20.089211"
         y="244.49548">Krisztián Gulyás</tspan></text><text
       xml:space="preserve"
       style="font-size:10.5833px;line-height:1.25;font-family:Lato;-inkscape-font-specification:Lato;stroke-width:0.264583"
       x="-42.632507"
       y="103.40391"
       id="text11487"><tspan
         sodipodi:role="line"
         id="tspan11485"
         style="stroke-width:0.264583"
         x="-42.632507"
         y="103.40391" /></text><text
       xml:space="preserve"
       style="font-style:normal;font-weight:normal;font-size:15.8446px;line-height:1.25;font-family:sans-serif;fill:#c1993c;fill-opacity:1;stroke:none;stroke-width:0.396115"
       x="21.348856"
       y="268.24896"
       id="text9843-3"><tspan
         sodipodi:role="line"
         id="tspan9841-6"
         style="font-style:normal;font-variant:normal;font-weight:normal;font-stretch:normal;font-family:Lato;-inkscape-font-specification:Lato;fill:#c1993c;fill-opacity:1;stroke-width:0.396115"
         x="21.348856"
         y="268.24896">Jun 2023</tspan></text></g></svg>
